# xmcd
#
# Track frame offsets:
#	150
#	14177
#	23267
#	36362
#	49307
#	66567
#	81977
#	102250
#	112930
#	128480
#
# Disc length: 1958 seconds
#
# Revision: 0
# Processed by: cddbd v1.5.1PL0 Copyright (c) Steve Scherf et al.
# Submitted via: audiograbber 1.83.01
#
DISCID=8207a40a
DTITLE=LeAnn Rimes - God Bless America
DYEAR=2001
DGENRE=Country
TTITLE0=God Bless America
TTITLE1=National Anthem
TTITLE2=The Lord's Prayer
TTITLE3=The Sands Of Time
TTITLE4=Why Can't We
TTITLE5=Put A Little Holiday In Your Heart
TTITLE6=Middle Man
TTITLE7=I Believe
TTITLE8=Broken Wing
TTITLE9=Amazing Grace
EXTD=
EXTT0=
EXTT1=
EXTT2=
EXTT3=
EXTT4=
EXTT5=
EXTT6=
EXTT7=
EXTT8=
EXTT9=
PLAYORDER=
